<svg xmlns="http://www.w3.org/2000/svg" xmlns:xlink="http://www.w3.org/1999/xlink" version="1.1" class="marks" width="841" height="501" viewBox="0 0 841 501"><rect width="841" height="501" fill="white"/><g fill="none" stroke-miterlimit="10" transform="translate(34,76)"><g class="mark-group role-frame root" role="graphics-object" aria-roledescription="group mark container"><g transform="translate(0,0)"><path class="background" aria-hidden="true" d="M0,0h800v400h-800Z" stroke="#ddd" stroke-width="0"/><g><g class="mark-group role-axis" role="graphics-symbol" aria-roledescription="axis" aria-label="X-axis for a time scale with values from Saturday, 13 November 2021, 8:42:34 AM to Saturday, 13 November 2021, 5:52:50 PM"><g transform="translate(0.5,400.5)"><path class="background" aria-hidden="true" d="M0,0h0v0h0Z" pointer-events="none"/><g><g class="mark-rule role-axis-grid" pointer-events="none"><line transform="translate(25,-400)" x2="0" y2="400" stroke="#ddd" stroke-width="1" stroke-dasharray="5,4" opacity="1"/><line transform="translate(69,-400)" x2="0" y2="400" stroke="#ddd" stroke-width="1" stroke-dasharray="5,4" opacity="1"/><line transform="translate(113,-400)" x2="0" y2="400" stroke="#ddd" stroke-width="1" stroke-dasharray="5,4" opacity="1"/><line transform="translate(156,-400)" x2="0" y2="400" stroke="#ddd" stroke-width="1" stroke-dasharray="5,4" opacity="1"/><line transform="translate(200,-400)" x2="0" y2="400" stroke="#ddd" stroke-width="1" stroke-dasharray="5,4" opacity="1"/><line transform="translate(243,-400)" x2="0" y2="400" stroke="#ddd" stroke-width="1" stroke-dasharray="5,4" opacity="1"/><line transform="translate(287,-400)" x2="0" y2="400" stroke="#ddd" stroke-width="1" stroke-dasharray="5,4" opacity="1"/><line transform="translate(331,-400)" x2="0" y2="400" stroke="#ddd" stroke-width="1" stroke-dasharray="5,4" opacity="1"/><line transform="translate(374,-400)" x2="0" y2="400" stroke="#ddd" stroke-width="1" stroke-dasharray="5,4" opacity="1"/><line transform="translate(418,-400)" x2="0" y2="400" stroke="#ddd" stroke-width="1" stroke-dasharray="5,4" opacity="1"/><line transform="translate(461,-400)" x2="0" y2="400" stroke="#ddd" stroke-width="1" stroke-dasharray="5,4" opacity="1"/><line transform="translate(505,-400)" x2="0" y2="400" stroke="#ddd" stroke-width="1" stroke-dasharray="5,4" opacity="1"/><line transform="translate(549,-400)" x2="0" y2="400" stroke="#ddd" stroke-width="1" stroke-dasharray="5,4" opacity="1"/><line transform="translate(592,-400)" x2="0" y2="400" stroke="#ddd" stroke-width="1" stroke-dasharray="5,4" opacity="1"/><line transform="translate(636,-400)" x2="0" y2="400" stroke="#ddd" stroke-width="1" stroke-dasharray="5,4" opacity="1"/><line transform="translate(680,-400)" x2="0" y2="400" stroke="#ddd" stroke-width="1" stroke-dasharray="5,4" opacity="1"/><line transform="translate(723,-400)" x2="0" y2="400" stroke="#ddd" stroke-width="1" stroke-dasharray="5,4" opacity="1"/><line transform="translate(767,-400)" x2="0" y2="400" stroke="#ddd" stroke-width="1" stroke-dasharray="5,4" opacity="1"/></g></g><path class="foreground" aria-hidden="true" d="" pointer-events="none" display="none"/></g></g><g class="mark-group role-axis" role="graphics-symbol" aria-roledescription="axis" aria-label="Y-axis for a linear scale with values from 0 to 130"><g transform="translate(0.5,0.5)"><path class="background" aria-hidden="true" d="M0,0h0v0h0Z" pointer-events="none"/><g><g class="mark-rule role-axis-grid" pointer-events="none"><line transform="translate(0,400)" x2="800" y2="0" stroke="#ddd" stroke-width="1" stroke-dasharray="5,4" opacity="1"/><line transform="translate(0,369)" x2="800" y2="0" stroke="#ddd" stroke-width="1" stroke-dasharray="5,4" opacity="1"/><line transform="translate(0,338)" x2="800" y2="0" stroke="#ddd" stroke-width="1" stroke-dasharray="5,4" opacity="1"/><line transform="translate(0,308)" x2="800" y2="0" stroke="#ddd" stroke-width="1" stroke-dasharray="5,4" opacity="1"/><line transform="translate(0,277)" x2="800" y2="0" stroke="#ddd" stroke-width="1" stroke-dasharray="5,4" opacity="1"/><line transform="translate(0,246)" x2="800" y2="0" stroke="#ddd" stroke-width="1" stroke-dasharray="5,4" opacity="1"/><line transform="translate(0,215)" x2="800" y2="0" stroke="#ddd" stroke-width="1" stroke-dasharray="5,4" opacity="1"/><line transform="translate(0,185)" x2="800" y2="0" stroke="#ddd" stroke-width="1" stroke-dasharray="5,4" opacity="1"/><line transform="translate(0,154)" x2="800" y2="0" stroke="#ddd" stroke-width="1" stroke-dasharray="5,4" opacity="1"/><line transform="translate(0,123)" x2="800" y2="0" stroke="#ddd" stroke-width="1" stroke-dasharray="5,4" opacity="1"/><line transform="translate(0,92)" x2="800" y2="0" stroke="#ddd" stroke-width="1" stroke-dasharray="5,4" opacity="1"/><line transform="translate(0,62)" x2="800" y2="0" stroke="#ddd" stroke-width="1" stroke-dasharray="5,4" opacity="1"/><line transform="translate(0,31)" x2="800" y2="0" stroke="#ddd" stroke-width="1" stroke-dasharray="5,4" opacity="1"/><line transform="translate(0,0)" x2="800" y2="0" stroke="#ddd" stroke-width="1" stroke-dasharray="5,4" opacity="1"/></g></g><path class="foreground" aria-hidden="true" d="" pointer-events="none" display="none"/></g></g><g class="mark-group role-axis" role="graphics-symbol" aria-roledescription="axis" aria-label="X-axis for a time scale with values from Saturday, 13 November 2021, 8:42:34 AM to Saturday, 13 November 2021, 5:52:50 PM"><g transform="translate(0.5,400.5)"><path class="background" aria-hidden="true" d="M0,0h0v0h0Z" pointer-events="none"/><g><g class="mark-rule role-axis-tick" pointer-events="none"><line transform="translate(25,0)" x2="0" y2="5" stroke="#888" stroke-width="1" opacity="1"/><line transform="translate(69,0)" x2="0" y2="5" stroke="#888" stroke-width="1" opacity="1"/><line transform="translate(113,0)" x2="0" y2="5" stroke="#888" stroke-width="1" opacity="1"/><line transform="translate(156,0)" x2="0" y2="5" stroke="#888" stroke-width="1" opacity="1"/><line transform="translate(200,0)" x2="0" y2="5" stroke="#888" stroke-width="1" opacity="1"/><line transform="translate(243,0)" x2="0" y2="5" stroke="#888" stroke-width="1" opacity="1"/><line transform="translate(287,0)" x2="0" y2="5" stroke="#888" stroke-width="1" opacity="1"/><line transform="translate(331,0)" x2="0" y2="5" stroke="#888" stroke-width="1" opacity="1"/><line transform="translate(374,0)" x2="0" y2="5" stroke="#888" stroke-width="1" opacity="1"/><line transform="translate(418,0)" x2="0" y2="5" stroke="#888" stroke-width="1" opacity="1"/><line transform="translate(461,0)" x2="0" y2="5" stroke="#888" stroke-width="1" opacity="1"/><line transform="translate(505,0)" x2="0" y2="5" stroke="#888" stroke-width="1" opacity="1"/><line transform="translate(549,0)" x2="0" y2="5" stroke="#888" stroke-width="1" opacity="1"/><line transform="translate(592,0)" x2="0" y2="5" stroke="#888" stroke-width="1" opacity="1"/><line transform="translate(636,0)" x2="0" y2="5" stroke="#888" stroke-width="1" opacity="1"/><line transform="translate(680,0)" x2="0" y2="5" stroke="#888" stroke-width="1" opacity="1"/><line transform="translate(723,0)" x2="0" y2="5" stroke="#888" stroke-width="1" opacity="1"/><line transform="translate(767,0)" x2="0" y2="5" stroke="#888" stroke-width="1" opacity="1"/></g><g class="mark-text role-axis-label" pointer-events="none"><text text-anchor="middle" transform="translate(25.333152776102256,18)" font-family="Sometype Mono" font-size="10px" fill="#000" opacity="1">09:00 AM</text><text text-anchor="middle" transform="translate(68.9479614453572,18)" font-family="Sometype Mono" font-size="10px" fill="#000" opacity="0">09:30 AM</text><text text-anchor="middle" transform="translate(112.56277011461215,18)" font-family="Sometype Mono" font-size="10px" fill="#000" opacity="1">10:00 AM</text><text text-anchor="middle" transform="translate(156.1775787838671,18)" font-family="Sometype Mono" font-size="10px" fill="#000" opacity="0">10:30 AM</text><text text-anchor="middle" transform="translate(199.79238745312202,18)" font-family="Sometype Mono" font-size="10px" fill="#000" opacity="1">11:00 AM</text><text text-anchor="middle" transform="translate(243.40719612237697,18)" font-family="Sometype Mono" font-size="10px" fill="#000" opacity="0">11:30 AM</text><text text-anchor="middle" transform="translate(287.0220047916319,18)" font-family="Sometype Mono" font-size="10px" fill="#000" opacity="1">12:00 PM</text><text text-anchor="middle" transform="translate(330.63681346088686,18)" font-family="Sometype Mono" font-size="10px" fill="#000" opacity="0">12:30 PM</text><text text-anchor="middle" transform="translate(374.2516221301418,18)" font-family="Sometype Mono" font-size="10px" fill="#000" opacity="1">01:00 PM</text><text text-anchor="middle" transform="translate(417.86643079939677,18)" font-family="Sometype Mono" font-size="10px" fill="#000" opacity="0">01:30 PM</text><text text-anchor="middle" transform="translate(461.48123946865167,18)" font-family="Sometype Mono" font-size="10px" fill="#000" opacity="1">02:00 PM</text><text text-anchor="middle" transform="translate(505.0960481379066,18)" font-family="Sometype Mono" font-size="10px" fill="#000" opacity="0">02:30 PM</text><text text-anchor="middle" transform="translate(548.7108568071616,18)" font-family="Sometype Mono" font-size="10px" fill="#000" opacity="1">03:00 PM</text><text text-anchor="middle" transform="translate(592.3256654764165,18)" font-family="Sometype Mono" font-size="10px" fill="#000" opacity="0">03:30 PM</text><text text-anchor="middle" transform="translate(635.9404741456715,18)" font-family="Sometype Mono" font-size="10px" fill="#000" opacity="1">04:00 PM</text><text text-anchor="middle" transform="translate(679.5552828149264,18)" font-family="Sometype Mono" font-size="10px" fill="#000" opacity="0">04:30 PM</text><text text-anchor="middle" transform="translate(723.1700914841814,18)" font-family="Sometype Mono" font-size="10px" fill="#000" opacity="1">05:00 PM</text><text text-anchor="middle" transform="translate(766.7849001534363,18)" font-family="Sometype Mono" font-size="10px" fill="#000" opacity="0">05:30 PM</text></g><g class="mark-rule role-axis-domain" pointer-events="none"><line transform="translate(0,0)" x2="800" y2="0" stroke="#888" stroke-width="1" opacity="1"/></g></g><path class="foreground" aria-hidden="true" d="" pointer-events="none" display="none"/></g></g><g class="mark-group role-axis" role="graphics-symbol" aria-roledescription="axis" aria-label="Y-axis titled 'Active users' for a linear scale with values from 0 to 130"><g transform="translate(0.5,0.5)"><path class="background" aria-hidden="true" d="M0,0h0v0h0Z" pointer-events="none"/><g><g class="mark-text role-axis-label" pointer-events="none"><text text-anchor="end" transform="translate(-10,403)" font-family="Sometype Mono" font-size="10px" fill="#000" opacity="1">0</text><text text-anchor="end" transform="translate(-10,372.2307692307692)" font-family="Sometype Mono" font-size="10px" fill="#000" opacity="1">10</text><text text-anchor="end" transform="translate(-10,341.46153846153845)" font-family="Sometype Mono" font-size="10px" fill="#000" opacity="1">20</text><text text-anchor="end" transform="translate(-10,310.6923076923077)" font-family="Sometype Mono" font-size="10px" fill="#000" opacity="1">30</text><text text-anchor="end" transform="translate(-10,279.9230769230769)" font-family="Sometype Mono" font-size="10px" fill="#000" opacity="1">40</text><text text-anchor="end" transform="translate(-10,249.15384615384616)" font-family="Sometype Mono" font-size="10px" fill="#000" opacity="1">50</text><text text-anchor="end" transform="translate(-10,218.3846153846154)" font-family="Sometype Mono" font-size="10px" fill="#000" opacity="1">60</text><text text-anchor="end" transform="translate(-10,187.6153846153846)" font-family="Sometype Mono" font-size="10px" fill="#000" opacity="1">70</text><text text-anchor="end" transform="translate(-10,156.84615384615384)" font-family="Sometype Mono" font-size="10px" fill="#000" opacity="1">80</text><text text-anchor="end" transform="translate(-10,126.07692307692308)" font-family="Sometype Mono" font-size="10px" fill="#000" opacity="1">90</text><text text-anchor="end" transform="translate(-10,95.30769230769229)" font-family="Sometype Mono" font-size="10px" fill="#000" opacity="1">100</text><text text-anchor="end" transform="translate(-10,64.53846153846155)" font-family="Sometype Mono" font-size="10px" fill="#000" opacity="1">110</text><text text-anchor="end" transform="translate(-10,33.769230769230745)" font-family="Sometype Mono" font-size="10px" fill="#000" opacity="1">120</text><text text-anchor="end" transform="translate(-10,3)" font-family="Sometype Mono" font-size="10px" fill="#000" opacity="1">130</text></g><g class="mark-text role-axis-title" pointer-events="none"><text text-anchor="middle" transform="translate(10,-12)" font-family="Sometype Mono" font-size="11px" font-weight="bold" fill="#000" opacity="1">Active users</text></g></g><path class="foreground" aria-hidden="true" d="" pointer-events="none" display="none"/></g></g><g class="mark-group role-scope pathgroup" role="graphics-object" aria-roledescription="group mark container"><g transform="translate(0,0)"><path class="background" aria-hidden="true" d="M0,0h800v400h-800Z"/><g><g class="mark-line role-mark marks" role="graphics-symbol" aria-roledescription="line mark container"><path d="M214.5549825087959,43.07692307692306L216.0115232747549,43.07692307692306L217.4686940323947,46.15384615384617L218.92591325093304,43.07692307692306L220.38393207429698,43.07692307692306L221.90301162979787,39.99999999999999L223.36032777013327,36.92307692307693L224.9023051001855,33.84615384615386L226.35957277962234,30.76923076923075L227.8168889199577,30.76923076923075L229.33819767679057,27.692307692307683L230.79544112577815,27.692307692307683L232.2525876529687,33.84615384615386L233.70970994970997,30.76923076923075L235.1668322464513,18.46153846153844L236.62456030442408,18.46153846153844L238.0819733665565,15.384615384615374L239.5389745110515,15.384615384615374L240.99590296419868,15.384615384615374L242.45435793564934,18.46153846153844L243.91150446283984,18.46153846153844L245.3839646339632,24.615384615384617L246.841135391603,21.53846153846155L248.29837884059057,21.53846153846155L249.75600997676634,27.692307692307683L251.2130838126091,30.76923076923075L252.67073917923412,33.84615384615386L254.12783724552614,33.84615384615386L255.58617106473048,36.92307692307693L257.04438373168847,33.84615384615386L258.502547937748,24.615384615384617L259.9600336912282,24.615384615384617L261.4173256011143,30.76923076923075L262.8746175110004,30.76923076923075L264.33195788178506,24.615384615384617L265.7906793881775,15.384615384615374L267.2518966308439,18.46153846153844L268.77613727203726,15.384615384615374L270.2379845063844,15.384615384615374L271.6955914121109,21.53846153846155L273.1527137088522,21.53846153846155L274.6723263342368,18.46153846153844L276.13007862265886,27.692307692307683L277.5875401456898,33.84615384615386L279.1079281454508,36.92307692307693L280.56526851623545,36.92307692307693L282.0268007547421,43.07692307692306L283.48421381687456,36.92307692307693L284.94206302709364,39.99999999999999L286.3994760892261,39.99999999999999L287.86132332357323,39.99999999999999L289.3218863441095,36.92307692307693L290.7832489694714,39.99999999999999L292.24347276371805,43.07692307692306L293.7050050022248,46.15384615384617L295.1652045660222,43.07692307692306L296.62717295261564,46.15384615384617L298.0851190846318,39.99999999999999L299.5422171509238,36.92307692307693L301.0023924842719,43.07692307692306L302.4631008875038,43.07692307692306L303.92075625412883,49.23076923076923L305.3822642621863,43.07692307692306L306.8413492253177,43.07692307692306L308.30399606449043,46.15384615384617L309.76429255008486,43.07692307692306L311.2259459408379,46.15384615384617L312.68716318350425,46.15384615384617L314.21356033468186,46.15384615384617L315.6749229600438,43.07692307692306L317.13349908374073,43.07692307692306L318.5964851492031,49.23076923076923L320.0544555116685,46.15384615384617L321.51160203885905,46.15384615384617L322.96913625323776,46.15384615384617L324.426161628182,55.384615384615365L325.88132125853315,55.384615384615365L327.3415450527798,58.461538461538474L328.79852196682555,61.53846153846154L330.26148380183866,64.61538461538461L331.72008415598486,61.53846153846154L333.18263407336053,67.69230769230768L334.6421794150279,67.69230769230768L336.1036874230853,73.84615384615385L337.6280734469744,67.69230769230768L339.0872068710043,67.69230769230768L340.61622091070205,70.76923076923079L342.0773170011221,67.69230769230768L343.5350208286456,67.69230769230768L344.99686806299275,67.69230769230768L346.51999410352016,67.69230769230768L347.9770194784644,70.76923076923079L349.4361286720451,73.84615384615385L350.95675897629866,76.92307692307692L352.41906658918174,83.0769230769231L353.8811561280215,79.99999999999999L355.3385207292553,83.0769230769231L356.8068617240043,86.15384615384616L358.2642505556875,113.84615384615384L359.7211063174869,120.00000000000001L361.1809908854439,116.9230769230769L362.63837971712707,126.15384615384615L364.09572008791173,123.07692307692308L365.5529635368993,113.84615384615384L367.01548922382574,120.00000000000001L368.53699182425265,113.84615384615384L369.9938960469506,116.9230769230769L371.4510425741412,116.9230769230769L372.91378633511096,104.6153846153846L374.37086017095373,95.3846153846154L375.8289759161147,86.15384615384616L377.3583776430006,92.30769230769229L378.84099037236416,92.30769230769229L380.29784613416354,86.15384615384616L381.7552834267452,79.99999999999999L383.27838523682345,70.76923076923079L384.8273167058135,67.69230769230768L386.28482668974294,67.69230769230768L387.8185656670465,58.461538461538474L389.2808248190311,58.461538461538474L390.807343122455,61.53846153846154L392.2678092211943,55.384615384615365L393.7251011310804,61.53846153846154L395.18302303264727,67.69230769230768L396.6409449342142,58.461538461538474L398.1651855754076,55.384615384615365L399.69705880811813,52.3076923076923L401.1538903394683,46.15384615384617L402.61171531923816,49.23076923076923L404.13978437141475,43.07692307692306L405.5986027996043,46.15384615384617L407.0559916312875,46.15384615384617L408.514906981274,43.07692307692306L410.0020992655478,46.15384615384617L411.4618869117078,43.07692307692306L412.9237099156056,43.07692307692306L414.3841033229971,46.15384615384617L415.9039097919758,46.15384615384617L417.3618559239919,55.384615384615365L418.82309739710763,55.384615384615365L420.2858653885266,58.461538461538474L421.74623456546885,64.61538461538461L423.2098263921627,61.53846153846154L424.6673606065414,58.461538461538474L426.1291351495408,58.461538461538474L427.58923779154117,61.53846153846154L429.05101233454053,61.53846153846154L430.5110665156423,64.61538461538461L431.9692307217018,64.61538461538461L433.42889721561545,64.61538461538461L434.88698873032723,64.61538461538461L436.345177166836,70.76923076923079L437.8023236940264,76.92307692307692L439.26087558727414,79.99999999999999L440.7240312658813,83.0769230769231L442.24776306764034,89.23076923076923L443.70529728201905,89.23076923076923L445.2321790421818,92.30769230769229L446.6901978655458,95.3846153846154L448.14751400588113,95.3846153846154L449.60480591576726,95.3846153846154L451.12965231819226,98.46153846153847L452.66317322145244,104.6153846153846L454.1225004890765,104.6153846153846L455.58483233240884,110.76923076923077L457.04483805261214,107.69230769230771L458.50290533687456,110.76923076923077L459.9658187109892,116.9230769230769L461.42463713917874,113.84615384615384L462.88229250580366,110.76923076923077L464.40156590489875,110.76923076923077L465.85960895871193,113.84615384615384L467.31721586443837,120.00000000000001L468.7756466054397,126.15384615384615L470.2803090436305,126.15384615384615L471.8035077755057,129.23076923076923L473.26121160302927,129.23076923076923L474.7198361876247,126.15384615384615L476.1774430933512,129.23076923076923L477.63497730772997,132.30769230769232L479.0922449871668,132.30769230769232L480.6195628954163,132.30769230769232L482.0770728793458,132.30769230769232L483.5345344023767,126.15384615384615L484.99289245203033,129.23076923076923L486.5197499817438,129.23076923076923L487.977502270166,138.46153846153845L489.4348426409506,141.53846153846152L490.9638809110976,150.76923076923077L492.42189973446153,147.6923076923077L493.87936125749246,150.76923076923077L495.33689547187123,150.76923076923077L496.7939450772647,150.76923076923077L498.2520123615272,147.6923076923077L499.7093042714132,150.76923076923077L501.16681425534273,150.76923076923077L502.6242757783736,153.84615384615384L504.14730489710405,156.92307692307693L505.6048875723813,153.84615384615384L507.06227640406445,169.23076923076925L508.51971369664614,172.30769230769232L510.0446327904188,175.3846153846154L511.5026273833335,178.46153846153845L512.9605008240018,178.46153846153845L514.4180834992791,181.53846153846155L515.8756661745564,181.53846153846155L517.3331519280365,181.53846153846155L518.8543395326232,184.6153846153846L520.3124068168855,187.69230769230768L521.7698683399166,184.6153846153846L523.2426435068802,187.69230769230768L524.7001050299111,187.69230769230768L526.1576150138405,190.76923076923075L527.6152703804656,206.15384615384613L529.0722715249606,209.2307692307692L530.5294665130497,209.2307692307692L531.9869038056313,209.2307692307692L533.4444137895608,209.2307692307692L534.9019237734902,227.69230769230768L536.3593852965212,224.6153846153846L537.8167741282043,227.69230769230768L539.2791302019859,227.69230769230768L540.7368097990602,215.3846153846154L542.1943682438882,215.3846153846154L543.6515874624265,209.2307692307692L545.1091701377037,203.07692307692307L546.5664862780392,203.07692307692307L548.0237781879252,190.76923076923075L549.4813366327533,184.6153846153846L550.9524398987179,184.6153846153846L552.4099014217489,181.53846153846155L553.8674840970261,172.30769230769232L555.3917247382195,163.07692307692307L556.8491862612505,166.15384615384613L558.3088285247148,166.15384615384613L559.7661446650502,163.07692307692307L561.2236061880811,160L562.680873867518,156.92307692307693L564.138432312346,156.92307692307693L565.6633514061186,156.92307692307693L567.120570624657,156.92307692307693L568.578032147688,156.92307692307693L570.0996801308105,160L571.5571174233922,160L573.0157420079876,156.92307692307693L574.4741969794383,156.92307692307693L575.9334757861637,156.92307692307693L577.391058461441,153.84615384615384L578.8485684453703,156.92307692307693L580.3059330466043,156.92307692307693L581.7638549481712,150.76923076923077L583.2212680103037,150.76923076923077L584.6787295333345,156.92307692307693L586.1393410147695,153.84615384615384L587.5966571551047,153.84615384615384L589.0540944476865,150.76923076923077L590.5115802011667,153.84615384615384L591.9689690328498,153.84615384615384L593.4917316166383,153.84615384615384L594.9496777486545,153.84615384615384L596.4070665803376,160L597.8651096341508,163.07692307692307L599.3231284575147,160L600.7810018981831,160L602.2384391907648,166.15384615384613L603.6958037919986,169.23076923076925L605.1536287717685,172.30769230769232L606.6108722207562,172.30769230769232L608.068794122323,172.30769230769232L609.5261587235569,175.3846153846154L610.983911011979,175.3846153846154L612.4420025266907,175.3846153846154L613.8994882801709,181.53846153846155L615.3568528814047,184.6153846153846L616.8142417130879,184.6153846153846L618.2718243883652,181.53846153846155L619.7293343722946,184.6153846153846L621.1873289652093,184.6153846153846L622.6459050889061,181.53846153846155L624.1033666119371,184.6153846153846L625.5608765958666,184.6153846153846L627.0186046538395,181.53846153846155L628.4761388682181,190.76923076923075L629.9337700043939,190.76923076923075L631.3911588360771,193.84615384615387L632.8486930504557,193.84615384615387L634.3060576516897,190.76923076923075L635.8282144742467,190.76923076923075L637.2856759972776,190.76923076923075L638.7437917424386,187.69230769230768L640.2011805741216,187.69230769230768L641.7182005414355,190.76923076923075L643.1755893731186,190.76923076923075L644.7051364827,193.84615384615387L646.1631795365133,193.84615384615387L647.6224583432388,196.92307692307693L649.0799198662697,193.84615384615387L650.598660195481,193.84615384615387L652.0566305579464,193.84615384615387L653.5143828463684,193.84615384615387L654.971626295356,193.84615384615387L656.4292574315318,190.76923076923075L657.8871551026494,193.84615384615387L659.3443743211877,193.84615384615387L660.8023446836531,196.92307692307693L662.2606058115097,196.92307692307693L663.7182127172362,196.92307692307693L665.1756984707164,196.92307692307693L666.6331842241965,190.76923076923075L668.0911788171112,190.76923076923075L669.5486403401422,190.76923076923075L671.0693675661928,196.92307692307693L672.5270471632671,196.92307692307693L673.9844844558488,196.92307692307693L675.4421882833723,200L676.9004009503303,200L678.4238419866981,206.15384615384613L679.8812308183814,209.2307692307692L681.3423753696999,209.2307692307692L682.8001518885711,209.2307692307692L684.2576134116022,212.30769230769232L685.78236289223,212.30769230769232L687.2404059460432,218.46153846153848L688.6974797818859,227.69230769230768L690.1549170744677,230.76923076923075L691.6124997497449,236.92307692307693L693.0700339641236,233.8461538461538L694.5278347134442,243.0769230769231L694.5278347134442,243.0769230769231L695.9853931582722,249.23076923076923L697.4428789117524,270.7692307692308L698.9002677434355,276.9230769230769L700.3581411841039,292.3076923076923L701.815626937584,301.53846153846155L703.2730399997165,313.84615384615387L704.7911018763484,332.30769230769226L706.2490480083646,338.46153846153845L707.706921449033,344.61538461538464L709.1645283547595,350.7692307692308L710.6857644202446,353.8461538461538L712.143274404174,360L713.6016809147261,360L715.0589001332644,360L716.5164343476431,360L717.9739685620219,360L719.4315996981976,360L720.8891823734748,366.15384615384613L722.3504480770398,369.2307692307692L723.808030752317,369.2307692307692L725.2657345798406,369.2307692307692L726.723341485567,369.2307692307692L728.1811906957861,369.2307692307692L729.6386522188171,366.15384615384613L731.096574120384,369.2307692307692L732.6226078148227,369.2307692307692L734.0807962513314,369.2307692307692L735.5984946712244,369.2307692307692L737.0561258074002,366.15384615384613L738.514314243909,366.15384615384613L739.9719211496355,366.15384615384613L741.4295038249128,366.15384615384613L742.8869653479436,366.15384615384613L744.3447660972643,366.15384615384613L745.8024456943385,366.15384615384613L747.2601252914128,366.15384615384613L748.7177806580379,366.15384615384613L750.1754602551121,366.15384615384613L751.6332852348819,366.15384615384613L753.0909163710577,366.15384615384613L754.6152297035989,366.15384615384613L756.073078913818,366.15384615384613L757.5310735067327,366.15384615384613L758.98865618201,366.15384615384613L760.4560521892378,366.15384615384613L761.9136590949643,366.15384615384613L763.3712417702415,366.15384615384613L764.8292605936053,366.15384615384613L766.2870855733753,366.15384615384613L767.7449347835943,366.15384615384613L769.2027839938135,366.15384615384613L770.6606332040326,366.15384615384613L772.1184339533532,366.15384615384613L773.5763800853694,366.15384615384613L775.034011221545,366.15384615384613L776.4912062096341,366.15384615384613L777.9486192717666,366.15384615384613L779.4058384903049,366.15384615384613L780.9265172554569,366.15384615384613L782.3840757002849,369.2307692307692L783.8414645319682,369.2307692307692L785.2988049027527,369.2307692307692L786.817642153761,369.2307692307692L788.274643298256,369.2307692307692L789.7323228953303,369.2307692307692L791.1899782619553,369.2307692307692L792.7125227717005,369.2307692307692L794.170323521021,369.2307692307692L795.6277365831535,369.2307692307692L797.0851254148367,369.2307692307692L798.5425384769691,369.2307692307692L800,369.2307692307692" stroke="#4c78a8" stroke-width="2"/></g></g><path class="foreground" aria-hidden="true" d="" display="none"/></g><g transform="translate(0,0)"><path class="background" aria-hidden="true" d="M0,0h800v400h-800Z"/><g><g class="mark-line role-mark marks" role="graphics-symbol" aria-roledescription="line mark container"><path d="M0,366.15384615384613L1.4601511028988734,366.15384615384613L2.9176853172775914,360L4.375195301207048,356.9230769230769L5.833214124570981,356.9230769230769L7.291111795688609,350.7692307692308L8.748839853661414,350.7692307692308L10.206616372532737,347.6923076923077L11.73344967179705,347.6923076923077L13.191129268871332,347.6923076923077L14.648857326844137,347.6923076923077L16.116907556201998,347.6923076923077L17.575629062594487,341.53846153846155L19.03328442921951,341.53846153846155L20.49110940898936,332.30769230769226L21.949612841338503,316.9230769230769L23.406613985833484,307.6923076923077L24.863930126168857,295.3846153846154L26.394422223271537,267.69230769230774L27.853022577417725,255.38461538461536L29.311065631230914,233.8461538461538L30.768551384711113,221.53846153846155L32.294391235555736,206.15384615384613L33.75173160634037,193.84615384615387L35.209605047008736,184.6153846153846L36.667454257227845,178.46153846153845L38.124843088911,163.07692307692307L39.582231920594154,160L41.03993574811769,156.92307692307693L42.49737304069937,160L43.95490725507809,156.92307692307693L45.41280492619572,169.23076923076925L46.87029067967591,169.23076923076925L48.32806719854724,169.23076923076925L49.78545603023039,169.23076923076925L51.31587543598529,169.23076923076925L52.773070424074355,166.15384615384613L54.236541098521954,166.15384615384613L55.69601374884152,166.15384615384613L57.15449295074141,169.23076923076925L58.61193024332309,166.15384615384613L60.069246383658445,166.15384615384613L61.526562523993825,163.07692307692307L62.9841209688218,160L64.51124503347724,160L65.96868232605891,156.92307692307693L67.49049992232626,160L68.94779183221237,156.92307692307693L70.41254672047079,156.92307692307693L71.87005670440024,160L73.32889936303903,160L74.87109476713462,163.07692307692307L76.33286931013397,160L77.85238501372154,163.07692307692307L79.38391902014243,166.15384615384613L80.91375689511507,160L82.37163033578344,156.92307692307693L83.82923724150994,160L85.28662607319309,153.84615384615384L86.80839520856193,160L88.36156700617262,160L89.81944044684099,160L91.27702312211822,163.07692307692307L92.73426657110582,163.07692307692307L94.1921884726727,163.07692307692307L95.64984383929772,166.15384615384613L97.10730536232866,166.15384615384613L98.56462150266402,160L100.08774754319145,163.07692307692307L101.54506368352682,163.07692307692307L103.00252520655778,160L104.46013211228427,160L105.91730286992407,163.07692307692307L107.37469170160723,169.23076923076925L108.8321289941889,166.15384615384613L110.35922882839509,166.15384615384613L111.81719919086048,166.15384615384613L113.27453956164513,169.23076923076925L114.7322191587194,166.15384615384613L116.25730786563695,172.30769230769232L117.7815969677289,169.23076923076925L119.24123923119329,166.15384615384613L120.69906421096313,163.07692307692307L122.16469139539493,166.15384615384613L123.62658709064056,172.30769230769232L125.09420117191175,172.30769230769232L126.61834489130813,175.3846153846154L128.07791446342475,178.46153846153845L129.5363209739768,184.6153846153846L130.99489709767374,175.3846153846154L132.45269784699434,172.30769230769232L133.9106439790105,172.30769230769232L135.36982586393893,172.30769230769232L136.82862006167923,172.30769230769232L138.28797155975246,172.30769230769232L139.74628114850756,172.30769230769232L141.2045907372626,172.30769230769232L142.66476607061074,172.30769230769232L144.12339065520618,172.30769230769232L145.58090063913565,166.15384615384613L147.041003281136,169.23076923076925L148.4984890346162,169.23076923076925L150.03060457181934,172.30769230769232L151.55627480951915,169.23076923076925L153.01373633255005,172.30769230769232L154.47117362513174,172.30769230769232L155.92754477794594,169.23076923076925L157.3851274532232,172.30769230769232L158.8426132067034,175.3846153846154L160.30005049928505,175.3846153846154L161.8291614607799,178.46153846153845L163.28647760111525,175.3846153846154L164.74410873729101,178.46153846153845L166.2797861505355,178.46153846153845L167.73853188737723,181.53846153846155L169.19667186298747,181.53846153846155L170.65517529533662,181.53846153846155L172.11266104881682,184.6153846153846L173.57007411094924,190.76923076923075L175.02828677790725,190.76923076923075L176.4920966786445,190.76923076923075L178.01452003614335,193.84615384615387L179.47224809411614,193.84615384615387L180.9303153783786,193.84615384615387L182.45617945967248,190.76923076923075L183.99309262582926,190.76923076923075L185.51481330029955,196.92307692307693L186.9721536710842,196.92307692307693L188.42937288962253,200L189.88671326040716,193.84615384615387L191.34468362287257,196.92307692307693L192.8021451459035,203.07692307692307L194.2598005125285,200L195.71714088331316,203.07692307692307L197.17448125409777,196.92307692307693L198.63206392937502,184.6153846153846L200.08969506555076,190.76923076923075L201.54785927161026,200L203.07064608584807,187.69230769230768L204.52861644831347,178.46153846153845L206.0524209414202,169.23076923076925L207.51000361669742,156.92307692307693L208.96736821793132,153.84615384615384L210.42490243231003,150.76923076923077L211.8832847124129,150.76923076923077L213.34081892679163,144.61538461538464L214.79828044982253,141.53846153846152L216.258673857214,135.3846153846154L217.80367999342386,135.3846153846154L219.26172304723704,135.3846153846154L220.7201053273399,132.30769230769232L222.17771223306636,141.53846153846152L223.6354402910392,141.53846153846152L225.09479178911243,147.6923076923077L226.61239328720845,147.6923076923077L228.06985481023938,147.6923076923077L229.52753440731368,147.6923076923077L230.98763704931403,147.6923076923077L232.4451228027942,147.6923076923077L233.90256009537592,147.6923076923077L235.42546806186,144.61538461538464L236.8861522346426,138.46153846153845L238.344122597108,141.53846153846152L239.80187488553005,135.3846153846154L241.2592879476625,141.53846153846152L242.71728254057714,138.46153846153845L244.17481675495588,141.53846153846152L245.63213289529125,141.53846153846152L247.09053940584334,144.61538461538464L248.54843707696097,144.61538461538464L250.06611126640473,144.61538461538464L251.52352432853715,144.61538461538464L252.98101008201735,147.6923076923077L254.51019373485994,150.76923076923077L255.96748564474606,147.6923076923077L257.4253106245159,147.6923076923077L258.88277214754686,150.76923076923077L260.34011251833147,141.53846153846152L261.7986644115791,138.46153846153845L263.2565136217982,138.46153846153845L264.80239205418144,141.53846153846152L266.2598051163139,141.53846153846152L267.78050811191525,144.61538461538464L269.23811501764175,153.84615384615384L270.69572192336824,153.84615384615384L272.1534015204425,156.92307692307693L273.61110534796603,160L275.0677672661714,166.15384615384613L276.58452069854326,160L278.04220029561753,166.15384615384613L279.4997345099963,166.15384615384613L280.9579956378528,166.15384615384613L282.41543293043446,169.23076923076925L283.94396236114704,166.15384615384613L285.4124729690409,163.07692307692307L286.87000718341955,163.07692307692307L288.32763831959534,181.53846153846155L289.7851240730755,184.6153846153846L291.24270674835276,178.46153846153845L292.70031365407925,187.69230769230768L294.1580901729506,181.53846153846155L295.6158666918219,184.6153846153846L297.07308591036025,187.69230769230768L298.53042628114486,187.69230769230768L299.9877666519295,190.76923076923075L301.44547047945304,193.84615384615387L302.90295623293326,193.84615384615387L304.42598535166366,196.92307692307693L305.88364071828863,196.92307692307693L307.34190184614516,196.92307692307693L308.7998237477121,196.92307692307693L310.25726104029377,203.07692307692307L311.7150860200636,203.07692307692307L313.1726202344423,203.07692307692307L314.6303725228644,209.2307692307692L316.0879309676924,206.15384615384613L317.545368260274,209.2307692307692L319.00292670510197,209.2307692307692L320.4723096091692,212.30769230769232L321.92981959309867,209.2307692307692L323.45381792979947,209.2307692307692L324.91205482720676,212.30769230769232L326.36958904158547,215.3846153846154L327.82746248225385,212.30769230769232L329.2849240052848,212.30769230769232L330.7425309110113,212.30769230769232L332.26083509213584,212.30769230769232L333.71836930651455,221.53846153846155L335.17624274718287,218.46153846153848L336.63370427021385,218.46153846153848L338.1592775861166,218.46153846153848L339.61673910914755,230.76923076923075L341.0741279408307,224.6153846153846L342.53231637733944,224.6153846153846L343.9898990526167,218.46153846153848L345.5063617195974,221.53846153846155L346.9657616785692,224.6153846153846L348.4235139669913,227.69230769230768L349.8810966422685,227.69230769230768L351.3378070213724,227.69230769230768L352.7949777790122,227.69230769230768L354.25253622384014,240L355.71116080843564,243.0769230769231L357.1685981010173,246.15384615384616L358.6358487255496,246.15384615384616L360.093358709479,252.3076923076923L361.5516198373355,249.23076923076923L363.0091540517143,252.3076923076923L364.4675363318171,252.3076923076923L365.9250947766451,249.23076923076923L367.3831378304583,249.23076923076923L368.8407447361848,246.15384615384616L370.29825472011424,243.0769230769231L371.75661276976786,233.8461538461538L373.2177088601878,233.8461538461538L373.2177088601878,233.8461538461538L374.6754369181607,218.46153846153848L376.13299536298865,203.07692307692307L377.5904568860196,190.76923076923075L379.0481607135431,187.69230769230768L380.50537993208144,181.53846153846155L381.962986837808,178.46153846153845L383.42064220443297,172.30769230769232L384.878297571058,169.23076923076925L386.33568640274115,169.23076923076925L387.7930752344243,166.15384615384613L389.25058521835376,166.15384615384613L390.70802251093545,166.15384615384613L392.16679247822645,163.07692307692307L393.62444784485143,160L395.0817639851868,160L396.5407277960719,163.07692307692307L397.9983104713492,163.07692307692307L399.4556023812353,160L400.98134531028285,160L402.4391702900527,160L403.8965591217359,160L405.35402064476676,160L406.8117002418411,160L408.2692102257705,163.07692307692307L409.73163899089997,163.07692307692307L411.190505879988,166.15384615384613L412.64808855526525,166.15384615384613L414.1059377654844,166.15384615384613L415.5632539058197,172.30769230769232L417.0219027208644,172.30769230769232L418.47984885288054,172.30769230769232L419.9369953800711,172.30769230769232L421.3951111252321,172.30769230769232L422.85281495275564,172.30769230769232L424.31017955398954,172.30769230769232L425.76764107702047,172.30769230769232L427.2248360651095,175.3846153846154L428.6822248967927,175.3846153846154L430.139541037128,172.30769230769232L431.59886830475205,172.30769230769232L433.0565963627248,172.30769230769232L434.51543902136365,172.30769230769232L435.97285208349604,172.30769230769232L437.43036206742556,175.3846153846154L438.89974497149274,175.3846153846154L440.3573034163207,175.3846153846154L441.88246481458606,175.3846153846154L443.3403382552544,175.3846153846154L444.7987689962558,178.46153846153845L446.2563274410837,178.46153846153845L447.7139828077088,178.46153846153845L449.17161394388455,181.53846153846155L450.68776161502484,181.53846153846155L452.1452958294036,181.53846153846155L453.6028542742316,181.53846153846155L455.0603400277118,181.53846153846155L456.51780155074266,178.46153846153845L457.9752873042229,175.3846153846154L459.4326519054568,175.3846153846154L460.8906222679222,175.3846153846154L462.3480353300546,175.3846153846154L463.8055210835348,172.30769230769232L465.2628856847687,172.30769230769232L466.7911001196409,172.30769230769232L468.24853741222256,172.30769230769232L469.7083250583825,172.30769230769232L471.1672646388183,172.30769230769232L472.62722189812314,172.30769230769232L474.08458649935704,175.3846153846154L475.5474271821239,175.3846153846154L477.0043071743725,175.3846153846154L478.46256830222904,175.3846153846154L479.91993290346295,175.3846153846154L481.37734596559534,178.46153846153845L482.83488017997405,181.53846153846155L484.292438624802,184.6153846153846L485.827316433221,184.6153846153846L487.28472949535336,184.6153846153846L488.74286947096357,187.69230769230768L490.2005732984871,187.69230769230768L491.6578894388225,190.76923076923075L493.121166269676,190.76923076923075L494.58129314212556,193.84615384615387L496.03865774335947,193.84615384615387L497.49604657504267,190.76923076923075L498.9541865506529,190.76923076923075L500.4115511518868,193.84615384615387L501.9578172714581,193.84615384615387L503.41561802077877,193.84615384615387L504.87574489322833,193.84615384615387L506.3330125726652,193.84615384615387L507.79069216973954,190.76923076923075L509.24798407962567,190.76923076923075L510.7054213722073,193.84615384615387L512.1625194384993,193.84615384615387L513.621992088819,190.76923076923075L515.0794293814006,193.84615384615387L516.5382235791409,190.76923076923075L517.9956366412733,193.84615384615387L519.4524681726234,193.84615384615387L520.9098570043066,200L522.3672942968882,200L523.8247558199192,203.07692307692307L525.2822173429502,200L526.7398484791258,200L528.1975765370987,206.15384615384613L529.6549169078834,206.15384615384613L531.1820894334372,209.2307692307692L532.6394298042219,212.30769230769232L534.0969882490499,215.3846153846154L535.5542074675882,212.30769230769232L537.0116447601699,206.15384615384613L538.4692032049979,206.15384615384613L539.9266404975795,206.15384615384613L541.3840777901612,203.07692307692307L542.84161200454,200L544.2988312230782,200L545.7582796429485,196.92307692307693L547.2156442441825,190.76923076923075L548.6732026890104,184.6153846153846L550.1305188293459,193.84615384615387L551.5879561219275,190.76923076923075L553.0456841799003,181.53846153846155L554.5031457029312,181.53846153846155L555.9605587650638,187.69230769230768L557.4184564361813,181.53846153846155L558.8758694983137,184.6153846153846L560.3330887168521,187.69230769230768L561.7908652357233,193.84615384615387L563.2483267587543,196.92307692307693L564.705860973133,193.84615384615387L566.1632498048161,187.69230769230768L567.6228193769327,190.76923076923075L569.1017006171102,196.92307692307693L570.5593802141844,196.92307692307693L572.0169628894616,193.84615384615387L573.4744728733912,193.84615384615387L574.9320313182192,200L576.3896624543949,196.92307692307693L577.8483354998889,196.92307692307693L579.3059181751661,193.84615384615387L580.7632585459507,193.84615384615387L582.2210108343728,196.92307692307693L583.6786177400993,196.92307692307693L585.1363942589705,200L586.5940496255956,196.92307692307693L588.0517049922207,196.92307692307693L589.5096511242368,196.92307692307693L590.9671611081662,200L592.4249860879361,203.07692307692307L593.8828837590537,203.07692307692307L595.3401756689399,203.07692307692307L596.8687777910002,206.15384615384613L598.3274266060449,206.15384615384613L599.7895403753339,209.2307692307692L601.2473653551037,209.2307692307692L602.7667841368942,209.2307692307692L604.2245364253163,209.2307692307692L605.6825552486803,209.2307692307692L607.1405983024935,209.2307692307692L608.5981809777708,209.2307692307692L610.0560544184391,209.2307692307692L611.5133947892236,209.2307692307692L612.9709290036025,206.15384615384613L614.428632831126,206.15384615384613L615.8865062717944,203.07692307692307L617.3439920252745,203.07692307692307L618.8016716223487,203.07692307692307L620.2591331453798,203.07692307692307L621.7163039030195,203.07692307692307L623.1738623478475,203.07692307692307L624.6314207926755,203.07692307692307L626.0891730810977,203.07692307692307L627.5470222913167,203.07692307692307L629.0678949000629,203.07692307692307L630.5254775753401,206.15384615384613L631.9832056333129,203.07692307692307L633.4407640781409,203.07692307692307L634.8982256011718,206.15384615384613L636.3741507265394,212.30769230769232L637.8315637886718,212.30769230769232L639.2889768508043,212.30769230769232L640.8154709237789,212.30769230769232L642.2732716730995,212.30769230769232L643.7500206337419,212.30769230769232L645.2074094654251,212.30769230769232L646.6647982971083,215.3846153846154L648.1222598201392,212.30769230769232L649.5805694088942,209.2307692307692L651.1076934735497,212.30769230769232L652.5666572844348,209.2307692307692L654.0242884206106,209.2307692307692L655.4820649394819,212.30769230769232L656.9404472195847,215.3846153846154L658.3984902733979,221.53846153846155L659.8882025243948,224.6153846153846L661.3464151913529,224.6153846153846L662.8048701628035,227.69230769230768L664.2638582041378,230.76923076923075L665.7222889451392,233.8461538461538L667.1824400480381,233.8461538461538L668.6408950194888,236.92307692307693L670.1001738262141,236.92307692307693L671.5589922544037,236.92307692307693L673.017229151811,236.92307692307693L674.4746179834942,236.92307692307693L675.9328791113508,236.92307692307693L677.3933209796407,236.92307692307693L678.8534963129888,246.15384615384616L680.3120724366858,246.15384615384616L681.7711816302665,246.15384615384616L683.2300969802529,246.15384615384616L684.6890850215874,246.15384615384616L686.2354238325065,246.15384615384616L687.6944603347395,243.0769230769231L689.1542479808994,243.0769230769231L690.6139387052623,243.0769230769231L692.0732902033355,243.0769230769231L693.5322297837714,249.23076923076923L694.9913632078013,249.23076923076923L696.4497212574548,246.15384615384616" stroke="#f58518" stroke-width="2"/></g></g><path class="foreground" aria-hidden="true" d="" display="none"/></g></g><g class="mark-group role-legend" role="graphics-symbol" aria-roledescription="legend" aria-label="Symbol legend for stroke color with 2 values: Saturday, Sunday"><g transform="translate(25,18)"><path class="background" aria-hidden="true" d="M0,0h63v24h-63Z" pointer-events="none"/><g><g class="mark-group role-legend-entry"><g transform="translate(0,0)"><path class="background" aria-hidden="true" d="M0,0h0v0h0Z" pointer-events="none"/><g><g class="mark-group role-scope" role="graphics-object" aria-roledescription="group mark container"><g transform="translate(0,0)"><path class="background" aria-hidden="true" d="M0,0h62.39990234375v11h-62.39990234375Z" pointer-events="none" opacity="1"/><g><g class="mark-symbol role-legend-symbol" pointer-events="none"><path transform="translate(6,6)" d="M-5,0L5,0" stroke="#4c78a8" stroke-width="1.5" opacity="1"/></g><g class="mark-text role-legend-label" pointer-events="none"><text text-anchor="start" transform="translate(16,9)" font-family="Sometype Mono" font-size="10px" fill="#000" opacity="1">Saturday</text></g></g><path class="foreground" aria-hidden="true" d="" pointer-events="none" display="none"/></g><g transform="translate(0,13)"><path class="background" aria-hidden="true" d="M0,0h62.39990234375v11h-62.39990234375Z" pointer-events="none" opacity="1"/><g><g class="mark-symbol role-legend-symbol" pointer-events="none"><path transform="translate(6,6)" d="M-5,0L5,0" stroke="#f58518" stroke-width="1.5" opacity="1"/></g><g class="mark-text role-legend-label" pointer-events="none"><text text-anchor="start" transform="translate(16,9)" font-family="Sometype Mono" font-size="10px" fill="#000" opacity="1">Sunday</text></g></g><path class="foreground" aria-hidden="true" d="" pointer-events="none" display="none"/></g></g></g><path class="foreground" aria-hidden="true" d="" pointer-events="none" display="none"/></g></g></g><path class="foreground" aria-hidden="true" d="" pointer-events="none" display="none"/></g></g><g class="mark-group role-title"><g transform="translate(-28.279937744140625,-71)"><path class="background" aria-hidden="true" d="M0,0h0v0h0Z" pointer-events="none"/><g><g class="mark-text role-title-text" role="graphics-symbol" aria-roledescription="title" aria-label="Title text 'The Wrangler'" pointer-events="none"><text text-anchor="start" transform="translate(0,13)" font-family="Sometype Mono" font-size="16px" font-weight="600" fill="#000" opacity="1">The Wrangler</text></g><g class="mark-text role-title-subtitle" role="graphics-symbol" aria-roledescription="subtitle" aria-label="Subtitle text 'Number of active users per minute'" pointer-events="none"><text text-anchor="start" transform="translate(0,28)" font-family="Sometype Mono" font-size="12px" fill="#000" opacity="1">Number of active users per minute</text></g></g><path class="foreground" aria-hidden="true" d="" pointer-events="none" display="none"/></g></g></g><path class="foreground" aria-hidden="true" d="" display="none"/></g></g></g></svg>